<svg width="332" height="38" viewBox="0 0 332 38" fill="none" xmlns="http://www.w3.org/2000/svg">
<rect x="18" y="19.3848" width="26" height="26" transform="rotate(-45 18 19.3848)" fill="#B4FF57"/>
<rect x="9" y="19.3848" width="26" height="26" transform="rotate(-45 9 19.3848)" fill="#98EC82"/>
<rect y="19.3848" width="26" height="26" transform="rotate(-45 0 19.3848)" fill="#18BA77"/>
<path d="M81.975 10.45V13.875H74.825V17.575H80.175V20.9H74.825V28H70.55V10.45H81.975ZM90.5719 28.2C89.2052 28.2 87.9719 27.9083 86.8719 27.325C85.7885 26.7417 84.9302 25.9083 84.2969 24.825C83.6802 23.7417 83.3719 22.475 83.3719 21.025C83.3719 19.5917 83.6885 18.3333 84.3219 17.25C84.9552 16.15 85.8219 15.3083 86.9219 14.725C88.0219 14.1417 89.2552 13.85 90.6219 13.85C91.9885 13.85 93.2219 14.1417 94.3219 14.725C95.4219 15.3083 96.2885 16.15 96.9219 17.25C97.5552 18.3333 97.8719 19.5917 97.8719 21.025C97.8719 22.4583 97.5469 23.725 96.8969 24.825C96.2635 25.9083 95.3885 26.7417 94.2719 27.325C93.1719 27.9083 91.9385 28.2 90.5719 28.2ZM90.5719 24.5C91.3885 24.5 92.0802 24.2 92.6469 23.6C93.2302 23 93.5219 22.1417 93.5219 21.025C93.5219 19.9083 93.2385 19.05 92.6719 18.45C92.1219 17.85 91.4385 17.55 90.6219 17.55C89.7885 17.55 89.0969 17.85 88.5469 18.45C87.9969 19.0333 87.7219 19.8917 87.7219 21.025C87.7219 22.1417 87.9885 23 88.5219 23.6C89.0719 24.2 89.7552 24.5 90.5719 24.5ZM104.415 9.5V28H100.14V9.5H104.415ZM112.813 13.85C113.796 13.85 114.655 14.05 115.388 14.45C116.138 14.85 116.713 15.375 117.113 16.025V14.05H121.388V27.975C121.388 29.2583 121.13 30.4167 120.613 31.45C120.113 32.5 119.338 33.3333 118.288 33.95C117.255 34.5667 115.963 34.875 114.413 34.875C112.346 34.875 110.671 34.3833 109.388 33.4C108.105 32.4333 107.371 31.1167 107.188 29.45H111.413C111.546 29.9833 111.863 30.4 112.363 30.7C112.863 31.0167 113.48 31.175 114.213 31.175C115.096 31.175 115.796 30.9167 116.313 30.4C116.846 29.9 117.113 29.0917 117.113 27.975V26C116.696 26.65 116.121 27.1833 115.388 27.6C114.655 28 113.796 28.2 112.813 28.2C111.663 28.2 110.621 27.9083 109.688 27.325C108.755 26.725 108.013 25.8833 107.463 24.8C106.93 23.7 106.663 22.4333 106.663 21C106.663 19.5667 106.93 18.3083 107.463 17.225C108.013 16.1417 108.755 15.3083 109.688 14.725C110.621 14.1417 111.663 13.85 112.813 13.85ZM117.113 21.025C117.113 19.9583 116.813 19.1167 116.213 18.5C115.63 17.8833 114.913 17.575 114.063 17.575C113.213 17.575 112.488 17.8833 111.888 18.5C111.305 19.1 111.013 19.9333 111.013 21C111.013 22.0667 111.305 22.9167 111.888 23.55C112.488 24.1667 113.213 24.475 114.063 24.475C114.913 24.475 115.63 24.1667 116.213 23.55C116.813 22.9333 117.113 22.0917 117.113 21.025ZM130.831 28.2C129.464 28.2 128.231 27.9083 127.131 27.325C126.047 26.7417 125.189 25.9083 124.556 24.825C123.939 23.7417 123.631 22.475 123.631 21.025C123.631 19.5917 123.947 18.3333 124.581 17.25C125.214 16.15 126.081 15.3083 127.181 14.725C128.281 14.1417 129.514 13.85 130.881 13.85C132.247 13.85 133.481 14.1417 134.581 14.725C135.681 15.3083 136.547 16.15 137.181 17.25C137.814 18.3333 138.131 19.5917 138.131 21.025C138.131 22.4583 137.806 23.725 137.156 24.825C136.522 25.9083 135.647 26.7417 134.531 27.325C133.431 27.9083 132.197 28.2 130.831 28.2ZM130.831 24.5C131.647 24.5 132.339 24.2 132.906 23.6C133.489 23 133.781 22.1417 133.781 21.025C133.781 19.9083 133.497 19.05 132.931 18.45C132.381 17.85 131.697 17.55 130.881 17.55C130.047 17.55 129.356 17.85 128.806 18.45C128.256 19.0333 127.981 19.8917 127.981 21.025C127.981 22.1417 128.247 23 128.781 23.6C129.331 24.2 130.014 24.5 130.831 24.5ZM148.899 13.9C150.532 13.9 151.832 14.4333 152.799 15.5C153.782 16.55 154.274 18 154.274 19.85V28H150.024V20.425C150.024 19.4917 149.782 18.7667 149.299 18.25C148.815 17.7333 148.165 17.475 147.349 17.475C146.532 17.475 145.882 17.7333 145.399 18.25C144.915 18.7667 144.674 19.4917 144.674 20.425V28H140.399V14.05H144.674V15.9C145.107 15.2833 145.69 14.8 146.424 14.45C147.157 14.0833 147.982 13.9 148.899 13.9ZM159.394 12.6C158.644 12.6 158.028 12.3833 157.544 11.95C157.078 11.5 156.844 10.95 156.844 10.3C156.844 9.63333 157.078 9.08333 157.544 8.65C158.028 8.2 158.644 7.975 159.394 7.975C160.128 7.975 160.728 8.2 161.194 8.65C161.678 9.08333 161.919 9.63333 161.919 10.3C161.919 10.95 161.678 11.5 161.194 11.95C160.728 12.3833 160.128 12.6 159.394 12.6ZM161.519 14.05V28H157.244V14.05H161.519ZM174.19 24.7H179.79V28H169.915V10.45H174.19V24.7ZM194.979 20.8C194.979 21.2 194.954 21.6167 194.904 22.05H185.229C185.296 22.9167 185.571 23.5833 186.054 24.05C186.554 24.5 187.163 24.725 187.879 24.725C188.946 24.725 189.688 24.275 190.104 23.375H194.654C194.421 24.2917 193.996 25.1167 193.379 25.85C192.779 26.5833 192.021 27.1583 191.104 27.575C190.188 27.9917 189.163 28.2 188.029 28.2C186.663 28.2 185.446 27.9083 184.379 27.325C183.313 26.7417 182.479 25.9083 181.879 24.825C181.279 23.7417 180.979 22.475 180.979 21.025C180.979 19.575 181.271 18.3083 181.854 17.225C182.454 16.1417 183.288 15.3083 184.354 14.725C185.421 14.1417 186.646 13.85 188.029 13.85C189.379 13.85 190.579 14.1333 191.629 14.7C192.679 15.2667 193.496 16.075 194.079 17.125C194.679 18.175 194.979 19.4 194.979 20.8ZM190.604 19.675C190.604 18.9417 190.354 18.3583 189.854 17.925C189.354 17.4917 188.729 17.275 187.979 17.275C187.263 17.275 186.654 17.4833 186.154 17.9C185.671 18.3167 185.371 18.9083 185.254 19.675H190.604ZM203.585 28.2C202.218 28.2 200.985 27.9083 199.885 27.325C198.801 26.7417 197.943 25.9083 197.31 24.825C196.693 23.7417 196.385 22.475 196.385 21.025C196.385 19.5917 196.701 18.3333 197.335 17.25C197.968 16.15 198.835 15.3083 199.935 14.725C201.035 14.1417 202.268 13.85 203.635 13.85C205.001 13.85 206.235 14.1417 207.335 14.725C208.435 15.3083 209.301 16.15 209.935 17.25C210.568 18.3333 210.885 19.5917 210.885 21.025C210.885 22.4583 210.56 23.725 209.91 24.825C209.276 25.9083 208.401 26.7417 207.285 27.325C206.185 27.9083 204.951 28.2 203.585 28.2ZM203.585 24.5C204.401 24.5 205.093 24.2 205.66 23.6C206.243 23 206.535 22.1417 206.535 21.025C206.535 19.9083 206.251 19.05 205.685 18.45C205.135 17.85 204.451 17.55 203.635 17.55C202.801 17.55 202.11 17.85 201.56 18.45C201.01 19.0333 200.735 19.8917 200.735 21.025C200.735 22.1417 201.001 23 201.535 23.6C202.085 24.2 202.768 24.5 203.585 24.5ZM221.653 13.9C223.286 13.9 224.586 14.4333 225.553 15.5C226.536 16.55 227.028 18 227.028 19.85V28H222.778V20.425C222.778 19.4917 222.536 18.7667 222.053 18.25C221.569 17.7333 220.919 17.475 220.103 17.475C219.286 17.475 218.636 17.7333 218.153 18.25C217.669 18.7667 217.428 19.4917 217.428 20.425V28H213.153V14.05H217.428V15.9C217.861 15.2833 218.444 14.8 219.178 14.45C219.911 14.0833 220.736 13.9 221.653 13.9ZM229.148 21C229.148 19.5667 229.415 18.3083 229.948 17.225C230.498 16.1417 231.24 15.3083 232.173 14.725C233.107 14.1417 234.148 13.85 235.298 13.85C236.282 13.85 237.14 14.05 237.873 14.45C238.623 14.85 239.198 15.375 239.598 16.025V14.05H243.873V28H239.598V26.025C239.182 26.675 238.598 27.2 237.848 27.6C237.115 28 236.257 28.2 235.273 28.2C234.14 28.2 233.107 27.9083 232.173 27.325C231.24 26.725 230.498 25.8833 229.948 24.8C229.415 23.7 229.148 22.4333 229.148 21ZM239.598 21.025C239.598 19.9583 239.298 19.1167 238.698 18.5C238.115 17.8833 237.398 17.575 236.548 17.575C235.698 17.575 234.973 17.8833 234.373 18.5C233.79 19.1 233.498 19.9333 233.498 21C233.498 22.0667 233.79 22.9167 234.373 23.55C234.973 24.1667 235.698 24.475 236.548 24.475C237.398 24.475 238.115 24.1667 238.698 23.55C239.298 22.9333 239.598 22.0917 239.598 21.025ZM251.241 16.375C251.741 15.6083 252.366 15.0083 253.116 14.575C253.866 14.125 254.699 13.9 255.616 13.9V18.425H254.441C253.374 18.425 252.574 18.6583 252.041 19.125C251.508 19.575 251.241 20.375 251.241 21.525V28H246.966V14.05H251.241V16.375ZM256.809 21C256.809 19.5667 257.076 18.3083 257.609 17.225C258.159 16.1417 258.901 15.3083 259.834 14.725C260.768 14.1417 261.809 13.85 262.959 13.85C263.876 13.85 264.709 14.0417 265.459 14.425C266.226 14.8083 266.826 15.325 267.259 15.975V9.5H271.534V28H267.259V26C266.859 26.6667 266.284 27.2 265.534 27.6C264.801 28 263.943 28.2 262.959 28.2C261.809 28.2 260.768 27.9083 259.834 27.325C258.901 26.725 258.159 25.8833 257.609 24.8C257.076 23.7 256.809 22.4333 256.809 21ZM267.259 21.025C267.259 19.9583 266.959 19.1167 266.359 18.5C265.776 17.8833 265.059 17.575 264.209 17.575C263.359 17.575 262.634 17.8833 262.034 18.5C261.451 19.1 261.159 19.9333 261.159 21C261.159 22.0667 261.451 22.9167 262.034 23.55C262.634 24.1667 263.359 24.475 264.209 24.475C265.059 24.475 265.776 24.1667 266.359 23.55C266.959 22.9333 267.259 22.0917 267.259 21.025ZM280.977 28.2C279.61 28.2 278.377 27.9083 277.277 27.325C276.194 26.7417 275.335 25.9083 274.702 24.825C274.085 23.7417 273.777 22.475 273.777 21.025C273.777 19.5917 274.094 18.3333 274.727 17.25C275.36 16.15 276.227 15.3083 277.327 14.725C278.427 14.1417 279.66 13.85 281.027 13.85C282.394 13.85 283.627 14.1417 284.727 14.725C285.827 15.3083 286.694 16.15 287.327 17.25C287.96 18.3333 288.277 19.5917 288.277 21.025C288.277 22.4583 287.952 23.725 287.302 24.825C286.669 25.9083 285.794 26.7417 284.677 27.325C283.577 27.9083 282.344 28.2 280.977 28.2ZM280.977 24.5C281.794 24.5 282.485 24.2 283.052 23.6C283.635 23 283.927 22.1417 283.927 21.025C283.927 19.9083 283.644 19.05 283.077 18.45C282.527 17.85 281.844 17.55 281.027 17.55C280.194 17.55 279.502 17.85 278.952 18.45C278.402 19.0333 278.127 19.8917 278.127 21.025C278.127 22.1417 278.394 23 278.927 23.6C279.477 24.2 280.16 24.5 280.977 24.5Z" fill="white"/>
</svg>
